<mxfile host="app.diagrams.net" modified="2022-02-09T20:35:00.832Z" agent="5.0 (Macintosh; Intel Mac OS X 10_15_7) AppleWebKit/537.36 (KHTML, like Gecko) Chrome/96.0.4664.110 Safari/537.36" etag="R09UW4EOhTyRbMLlIp9t" version="16.5.5" type="github">
  <diagram name="Page-1" id="edf60f1a-56cd-e834-aa8a-f176f3a09ee4">
    <mxGraphModel dx="1731" dy="1079" grid="1" gridSize="10" guides="1" tooltips="1" connect="1" arrows="1" fold="1" page="1" pageScale="1" pageWidth="1700" pageHeight="1100" background="none" math="0" shadow="0">
      <root>
        <mxCell id="0" />
        <mxCell id="1" parent="0" />
        <mxCell id="xp_GALmw90U57M7lSrMV-2" value="&lt;font style=&quot;font-size: 24px&quot;&gt;Potential Add&lt;br&gt;max(Bad LDO - 1, 0)&lt;br&gt;&lt;/font&gt;" style="rounded=0;whiteSpace=wrap;html=1;" vertex="1" parent="1">
          <mxGeometry x="860" y="890" width="240" height="140" as="geometry" />
        </mxCell>
        <mxCell id="xp_GALmw90U57M7lSrMV-92" style="edgeStyle=orthogonalEdgeStyle;rounded=0;orthogonalLoop=1;jettySize=auto;html=1;exitX=0.5;exitY=1;exitDx=0;exitDy=0;entryX=0.5;entryY=0;entryDx=0;entryDy=0;fontSize=24;" edge="1" parent="1" source="xp_GALmw90U57M7lSrMV-3" target="xp_GALmw90U57M7lSrMV-2">
          <mxGeometry relative="1" as="geometry" />
        </mxCell>
        <mxCell id="xp_GALmw90U57M7lSrMV-3" value="Bad LDO" style="rounded=0;whiteSpace=wrap;html=1;" vertex="1" parent="1">
          <mxGeometry x="1340" y="650" width="120" height="60" as="geometry" />
        </mxCell>
        <mxCell id="xp_GALmw90U57M7lSrMV-91" style="edgeStyle=orthogonalEdgeStyle;rounded=0;orthogonalLoop=1;jettySize=auto;html=1;exitX=1;exitY=0.5;exitDx=0;exitDy=0;entryX=-0.011;entryY=0.983;entryDx=0;entryDy=0;entryPerimeter=0;fontSize=24;" edge="1" parent="1" source="xp_GALmw90U57M7lSrMV-4" target="xp_GALmw90U57M7lSrMV-87">
          <mxGeometry relative="1" as="geometry">
            <Array as="points">
              <mxPoint x="1195" y="680" />
              <mxPoint x="1195" y="709" />
            </Array>
          </mxGeometry>
        </mxCell>
        <mxCell id="xp_GALmw90U57M7lSrMV-4" value="Good LDO" style="rounded=0;whiteSpace=wrap;html=1;" vertex="1" parent="1">
          <mxGeometry x="1050" y="650" width="120" height="60" as="geometry" />
        </mxCell>
        <mxCell id="xp_GALmw90U57M7lSrMV-83" style="edgeStyle=orthogonalEdgeStyle;rounded=0;orthogonalLoop=1;jettySize=auto;html=1;exitX=0.25;exitY=1;exitDx=0;exitDy=0;entryX=0.5;entryY=0;entryDx=0;entryDy=0;fontSize=10;" edge="1" parent="1" source="xp_GALmw90U57M7lSrMV-5" target="xp_GALmw90U57M7lSrMV-81">
          <mxGeometry relative="1" as="geometry" />
        </mxCell>
        <mxCell id="xp_GALmw90U57M7lSrMV-89" style="edgeStyle=orthogonalEdgeStyle;rounded=0;orthogonalLoop=1;jettySize=auto;html=1;exitX=1;exitY=0.5;exitDx=0;exitDy=0;entryX=0.022;entryY=-0.017;entryDx=0;entryDy=0;entryPerimeter=0;fontSize=10;" edge="1" parent="1" source="xp_GALmw90U57M7lSrMV-5" target="xp_GALmw90U57M7lSrMV-87">
          <mxGeometry relative="1" as="geometry" />
        </mxCell>
        <mxCell id="xp_GALmw90U57M7lSrMV-5" value="Total LDO" style="rounded=0;whiteSpace=wrap;html=1;" vertex="1" parent="1">
          <mxGeometry x="860" y="510" width="120" height="60" as="geometry" />
        </mxCell>
        <mxCell id="xp_GALmw90U57M7lSrMV-76" style="edgeStyle=orthogonalEdgeStyle;rounded=0;orthogonalLoop=1;jettySize=auto;html=1;exitX=0.5;exitY=1;exitDx=0;exitDy=0;entryX=0.5;entryY=0;entryDx=0;entryDy=0;" edge="1" parent="1" source="xp_GALmw90U57M7lSrMV-6" target="xp_GALmw90U57M7lSrMV-5">
          <mxGeometry relative="1" as="geometry">
            <Array as="points">
              <mxPoint x="1130" y="460" />
              <mxPoint x="920" y="460" />
            </Array>
          </mxGeometry>
        </mxCell>
        <mxCell id="xp_GALmw90U57M7lSrMV-6" value="Backlog Beginning of Day&lt;br&gt;(S&amp;amp;OP Trailers - MM Trailers + previous day backlog)" style="rounded=0;whiteSpace=wrap;html=1;" vertex="1" parent="1">
          <mxGeometry x="1070" y="180" width="130" height="90" as="geometry" />
        </mxCell>
        <mxCell id="xp_GALmw90U57M7lSrMV-69" style="edgeStyle=orthogonalEdgeStyle;rounded=0;orthogonalLoop=1;jettySize=auto;html=1;exitX=0.5;exitY=1;exitDx=0;exitDy=0;entryX=0.5;entryY=1;entryDx=0;entryDy=0;" edge="1" parent="1" source="xp_GALmw90U57M7lSrMV-7" target="xp_GALmw90U57M7lSrMV-10">
          <mxGeometry relative="1" as="geometry">
            <Array as="points">
              <mxPoint x="920" y="410" />
              <mxPoint x="390" y="410" />
            </Array>
          </mxGeometry>
        </mxCell>
        <mxCell id="xp_GALmw90U57M7lSrMV-7" value="Warehouse Extra" style="rounded=0;whiteSpace=wrap;html=1;" vertex="1" parent="1">
          <mxGeometry x="860" y="280" width="120" height="60" as="geometry" />
        </mxCell>
        <mxCell id="xp_GALmw90U57M7lSrMV-64" style="edgeStyle=orthogonalEdgeStyle;rounded=0;orthogonalLoop=1;jettySize=auto;html=1;exitX=1;exitY=0.5;exitDx=0;exitDy=0;entryX=0.017;entryY=1.013;entryDx=0;entryDy=0;entryPerimeter=0;" edge="1" parent="1" source="xp_GALmw90U57M7lSrMV-8" target="xp_GALmw90U57M7lSrMV-62">
          <mxGeometry relative="1" as="geometry" />
        </mxCell>
        <mxCell id="xp_GALmw90U57M7lSrMV-72" style="edgeStyle=orthogonalEdgeStyle;rounded=0;orthogonalLoop=1;jettySize=auto;html=1;exitX=0.75;exitY=1;exitDx=0;exitDy=0;entryX=0.15;entryY=1.017;entryDx=0;entryDy=0;entryPerimeter=0;" edge="1" parent="1" source="xp_GALmw90U57M7lSrMV-8" target="xp_GALmw90U57M7lSrMV-6">
          <mxGeometry relative="1" as="geometry" />
        </mxCell>
        <mxCell id="xp_GALmw90U57M7lSrMV-8" value="S&amp;amp;OP Trailers" style="rounded=0;whiteSpace=wrap;html=1;" vertex="1" parent="1">
          <mxGeometry x="500" y="310" width="120" height="60" as="geometry" />
        </mxCell>
        <mxCell id="xp_GALmw90U57M7lSrMV-9" value="Outbound Cube" style="rounded=0;whiteSpace=wrap;html=1;" vertex="1" parent="1">
          <mxGeometry x="520" y="70" width="120" height="60" as="geometry" />
        </mxCell>
        <mxCell id="xp_GALmw90U57M7lSrMV-58" style="edgeStyle=orthogonalEdgeStyle;rounded=0;orthogonalLoop=1;jettySize=auto;html=1;exitX=1;exitY=0.5;exitDx=0;exitDy=0;entryX=0;entryY=0.5;entryDx=0;entryDy=0;" edge="1" parent="1" source="xp_GALmw90U57M7lSrMV-10" target="xp_GALmw90U57M7lSrMV-8">
          <mxGeometry relative="1" as="geometry" />
        </mxCell>
        <mxCell id="xp_GALmw90U57M7lSrMV-67" style="edgeStyle=orthogonalEdgeStyle;rounded=0;orthogonalLoop=1;jettySize=auto;html=1;exitX=0.75;exitY=0;exitDx=0;exitDy=0;entryX=0;entryY=0;entryDx=0;entryDy=0;entryPerimeter=0;" edge="1" parent="1" source="xp_GALmw90U57M7lSrMV-10" target="xp_GALmw90U57M7lSrMV-62">
          <mxGeometry relative="1" as="geometry" />
        </mxCell>
        <mxCell id="xp_GALmw90U57M7lSrMV-10" value="S&amp;amp;OP Divert Cube" style="rounded=0;whiteSpace=wrap;html=1;" vertex="1" parent="1">
          <mxGeometry x="330" y="300" width="120" height="60" as="geometry" />
        </mxCell>
        <mxCell id="xp_GALmw90U57M7lSrMV-59" style="edgeStyle=orthogonalEdgeStyle;rounded=0;orthogonalLoop=1;jettySize=auto;html=1;exitX=1;exitY=0.5;exitDx=0;exitDy=0;entryX=0;entryY=0.5;entryDx=0;entryDy=0;" edge="1" parent="1" source="xp_GALmw90U57M7lSrMV-11" target="xp_GALmw90U57M7lSrMV-9">
          <mxGeometry relative="1" as="geometry" />
        </mxCell>
        <mxCell id="xp_GALmw90U57M7lSrMV-71" style="edgeStyle=orthogonalEdgeStyle;rounded=0;orthogonalLoop=1;jettySize=auto;html=1;exitX=0.5;exitY=0;exitDx=0;exitDy=0;" edge="1" parent="1" source="xp_GALmw90U57M7lSrMV-11" target="xp_GALmw90U57M7lSrMV-6">
          <mxGeometry relative="1" as="geometry">
            <Array as="points">
              <mxPoint x="400" y="10" />
              <mxPoint x="1090" y="10" />
            </Array>
          </mxGeometry>
        </mxCell>
        <mxCell id="xp_GALmw90U57M7lSrMV-11" value="MM Trailers" style="rounded=0;whiteSpace=wrap;html=1;" vertex="1" parent="1">
          <mxGeometry x="340" y="65" width="120" height="60" as="geometry" />
        </mxCell>
        <mxCell id="xp_GALmw90U57M7lSrMV-12" value="nta_schd" style="swimlane;fontStyle=0;childLayout=stackLayout;horizontal=1;startSize=30;horizontalStack=0;resizeParent=1;resizeParentMax=0;resizeLast=0;collapsible=1;marginBottom=0;" vertex="1" parent="1">
          <mxGeometry x="140" y="5" width="140" height="180" as="geometry">
            <mxRectangle x="520" y="30" width="80" height="30" as="alternateBounds" />
          </mxGeometry>
        </mxCell>
        <mxCell id="xp_GALmw90U57M7lSrMV-13" value="destination_id" style="text;strokeColor=none;fillColor=none;align=left;verticalAlign=middle;spacingLeft=4;spacingRight=4;overflow=hidden;points=[[0,0.5],[1,0.5]];portConstraint=eastwest;rotatable=0;" vertex="1" parent="xp_GALmw90U57M7lSrMV-12">
          <mxGeometry y="30" width="140" height="30" as="geometry" />
        </mxCell>
        <mxCell id="xp_GALmw90U57M7lSrMV-15" value="schedule_id" style="text;strokeColor=none;fillColor=none;align=left;verticalAlign=middle;spacingLeft=4;spacingRight=4;overflow=hidden;points=[[0,0.5],[1,0.5]];portConstraint=eastwest;rotatable=0;" vertex="1" parent="xp_GALmw90U57M7lSrMV-12">
          <mxGeometry y="60" width="140" height="30" as="geometry" />
        </mxCell>
        <mxCell id="xp_GALmw90U57M7lSrMV-18" value="origin_id" style="text;strokeColor=none;fillColor=none;align=left;verticalAlign=middle;spacingLeft=4;spacingRight=4;overflow=hidden;points=[[0,0.5],[1,0.5]];portConstraint=eastwest;rotatable=0;" vertex="1" parent="xp_GALmw90U57M7lSrMV-12">
          <mxGeometry y="90" width="140" height="30" as="geometry" />
        </mxCell>
        <mxCell id="xp_GALmw90U57M7lSrMV-27" value="unload_time" style="text;strokeColor=none;fillColor=none;align=left;verticalAlign=middle;spacingLeft=4;spacingRight=4;overflow=hidden;points=[[0,0.5],[1,0.5]];portConstraint=eastwest;rotatable=0;" vertex="1" parent="xp_GALmw90U57M7lSrMV-12">
          <mxGeometry y="120" width="140" height="30" as="geometry" />
        </mxCell>
        <mxCell id="xp_GALmw90U57M7lSrMV-78" value="unload_date" style="text;strokeColor=none;fillColor=none;align=left;verticalAlign=middle;spacingLeft=4;spacingRight=4;overflow=hidden;points=[[0,0.5],[1,0.5]];portConstraint=eastwest;rotatable=0;" vertex="1" parent="xp_GALmw90U57M7lSrMV-12">
          <mxGeometry y="150" width="140" height="30" as="geometry" />
        </mxCell>
        <mxCell id="xp_GALmw90U57M7lSrMV-20" value="Transit Times" style="swimlane;fontStyle=0;childLayout=stackLayout;horizontal=1;startSize=26;fillColor=none;horizontalStack=0;resizeParent=1;resizeParentMax=0;resizeLast=0;collapsible=1;marginBottom=0;" vertex="1" parent="1">
          <mxGeometry x="130" y="530" width="140" height="130" as="geometry" />
        </mxCell>
        <mxCell id="xp_GALmw90U57M7lSrMV-21" value="rdc" style="text;strokeColor=none;fillColor=none;align=left;verticalAlign=top;spacingLeft=4;spacingRight=4;overflow=hidden;rotatable=0;points=[[0,0.5],[1,0.5]];portConstraint=eastwest;" vertex="1" parent="xp_GALmw90U57M7lSrMV-20">
          <mxGeometry y="26" width="140" height="26" as="geometry" />
        </mxCell>
        <mxCell id="xp_GALmw90U57M7lSrMV-22" value="store" style="text;strokeColor=none;fillColor=none;align=left;verticalAlign=top;spacingLeft=4;spacingRight=4;overflow=hidden;rotatable=0;points=[[0,0.5],[1,0.5]];portConstraint=eastwest;" vertex="1" parent="xp_GALmw90U57M7lSrMV-20">
          <mxGeometry y="52" width="140" height="26" as="geometry" />
        </mxCell>
        <mxCell id="xp_GALmw90U57M7lSrMV-23" value="transit_hours&#xa;" style="text;strokeColor=none;fillColor=none;align=left;verticalAlign=top;spacingLeft=4;spacingRight=4;overflow=hidden;rotatable=0;points=[[0,0.5],[1,0.5]];portConstraint=eastwest;" vertex="1" parent="xp_GALmw90U57M7lSrMV-20">
          <mxGeometry y="78" width="140" height="26" as="geometry" />
        </mxCell>
        <mxCell id="xp_GALmw90U57M7lSrMV-24" value="transit_days" style="text;strokeColor=none;fillColor=none;align=left;verticalAlign=top;spacingLeft=4;spacingRight=4;overflow=hidden;rotatable=0;points=[[0,0.5],[1,0.5]];portConstraint=eastwest;" vertex="1" parent="xp_GALmw90U57M7lSrMV-20">
          <mxGeometry y="104" width="140" height="26" as="geometry" />
        </mxCell>
        <mxCell id="xp_GALmw90U57M7lSrMV-25" value="depart_time" style="rounded=0;whiteSpace=wrap;html=1;" vertex="1" parent="1">
          <mxGeometry x="480" y="580" width="120" height="60" as="geometry" />
        </mxCell>
        <mxCell id="xp_GALmw90U57M7lSrMV-30" value="Store - Trailer Size" style="swimlane;fontStyle=0;childLayout=stackLayout;horizontal=1;startSize=26;fillColor=none;horizontalStack=0;resizeParent=1;resizeParentMax=0;resizeLast=0;collapsible=1;marginBottom=0;" vertex="1" parent="1">
          <mxGeometry x="140" y="196" width="140" height="104" as="geometry" />
        </mxCell>
        <mxCell id="xp_GALmw90U57M7lSrMV-31" value="store" style="text;strokeColor=none;fillColor=none;align=left;verticalAlign=top;spacingLeft=4;spacingRight=4;overflow=hidden;rotatable=0;points=[[0,0.5],[1,0.5]];portConstraint=eastwest;" vertex="1" parent="xp_GALmw90U57M7lSrMV-30">
          <mxGeometry y="26" width="140" height="26" as="geometry" />
        </mxCell>
        <mxCell id="xp_GALmw90U57M7lSrMV-32" value="Trailer size" style="text;strokeColor=none;fillColor=none;align=left;verticalAlign=top;spacingLeft=4;spacingRight=4;overflow=hidden;rotatable=0;points=[[0,0.5],[1,0.5]];portConstraint=eastwest;" vertex="1" parent="xp_GALmw90U57M7lSrMV-30">
          <mxGeometry y="52" width="140" height="26" as="geometry" />
        </mxCell>
        <mxCell id="xp_GALmw90U57M7lSrMV-110" value="Trailler fill @ fill %" style="text;strokeColor=none;fillColor=none;align=left;verticalAlign=top;spacingLeft=4;spacingRight=4;overflow=hidden;rotatable=0;points=[[0,0.5],[1,0.5]];portConstraint=eastwest;" vertex="1" parent="xp_GALmw90U57M7lSrMV-30">
          <mxGeometry y="78" width="140" height="26" as="geometry" />
        </mxCell>
        <mxCell id="xp_GALmw90U57M7lSrMV-47" value="s&amp;op_forecast" style="swimlane;fontStyle=0;childLayout=stackLayout;horizontal=1;startSize=30;horizontalStack=0;resizeParent=1;resizeParentMax=0;resizeLast=0;collapsible=1;marginBottom=0;" vertex="1" parent="1">
          <mxGeometry x="130" y="330" width="140" height="180" as="geometry">
            <mxRectangle x="520" y="30" width="80" height="30" as="alternateBounds" />
          </mxGeometry>
        </mxCell>
        <mxCell id="xp_GALmw90U57M7lSrMV-48" value="str_i" style="text;strokeColor=none;fillColor=none;align=left;verticalAlign=middle;spacingLeft=4;spacingRight=4;overflow=hidden;points=[[0,0.5],[1,0.5]];portConstraint=eastwest;rotatable=0;" vertex="1" parent="xp_GALmw90U57M7lSrMV-47">
          <mxGeometry y="30" width="140" height="30" as="geometry" />
        </mxCell>
        <mxCell id="xp_GALmw90U57M7lSrMV-49" value="dc_i" style="text;strokeColor=none;fillColor=none;align=left;verticalAlign=middle;spacingLeft=4;spacingRight=4;overflow=hidden;points=[[0,0.5],[1,0.5]];portConstraint=eastwest;rotatable=0;" vertex="1" parent="xp_GALmw90U57M7lSrMV-47">
          <mxGeometry y="60" width="140" height="30" as="geometry" />
        </mxCell>
        <mxCell id="xp_GALmw90U57M7lSrMV-50" value="forecast" style="text;strokeColor=none;fillColor=none;align=left;verticalAlign=middle;spacingLeft=4;spacingRight=4;overflow=hidden;points=[[0,0.5],[1,0.5]];portConstraint=eastwest;rotatable=0;" vertex="1" parent="xp_GALmw90U57M7lSrMV-47">
          <mxGeometry y="90" width="140" height="30" as="geometry" />
        </mxCell>
        <mxCell id="xp_GALmw90U57M7lSrMV-51" value="forecast_date" style="text;strokeColor=none;fillColor=none;align=left;verticalAlign=middle;spacingLeft=4;spacingRight=4;overflow=hidden;points=[[0,0.5],[1,0.5]];portConstraint=eastwest;rotatable=0;" vertex="1" parent="xp_GALmw90U57M7lSrMV-47">
          <mxGeometry y="120" width="140" height="30" as="geometry" />
        </mxCell>
        <mxCell id="xp_GALmw90U57M7lSrMV-52" value="unload_time" style="text;strokeColor=none;fillColor=none;align=left;verticalAlign=middle;spacingLeft=4;spacingRight=4;overflow=hidden;points=[[0,0.5],[1,0.5]];portConstraint=eastwest;rotatable=0;" vertex="1" parent="xp_GALmw90U57M7lSrMV-47">
          <mxGeometry y="150" width="140" height="30" as="geometry" />
        </mxCell>
        <mxCell id="xp_GALmw90U57M7lSrMV-55" style="edgeStyle=orthogonalEdgeStyle;rounded=0;orthogonalLoop=1;jettySize=auto;html=1;exitX=1;exitY=0.5;exitDx=0;exitDy=0;entryX=0;entryY=0.5;entryDx=0;entryDy=0;" edge="1" parent="1" source="xp_GALmw90U57M7lSrMV-50" target="xp_GALmw90U57M7lSrMV-10">
          <mxGeometry relative="1" as="geometry" />
        </mxCell>
        <mxCell id="xp_GALmw90U57M7lSrMV-56" style="edgeStyle=orthogonalEdgeStyle;rounded=0;orthogonalLoop=1;jettySize=auto;html=1;exitX=1;exitY=0.5;exitDx=0;exitDy=0;entryX=0;entryY=0.5;entryDx=0;entryDy=0;" edge="1" parent="1" source="xp_GALmw90U57M7lSrMV-15" target="xp_GALmw90U57M7lSrMV-11">
          <mxGeometry relative="1" as="geometry" />
        </mxCell>
        <mxCell id="xp_GALmw90U57M7lSrMV-65" style="edgeStyle=orthogonalEdgeStyle;rounded=0;orthogonalLoop=1;jettySize=auto;html=1;exitX=1;exitY=0.5;exitDx=0;exitDy=0;entryX=0;entryY=0.5;entryDx=0;entryDy=0;" edge="1" parent="1" source="xp_GALmw90U57M7lSrMV-62" target="xp_GALmw90U57M7lSrMV-7">
          <mxGeometry relative="1" as="geometry" />
        </mxCell>
        <mxCell id="xp_GALmw90U57M7lSrMV-62" value="S&amp;amp;OP Divert Cube - (S&amp;amp;OP Trailers * Trailer size)" style="shape=step;perimeter=stepPerimeter;whiteSpace=wrap;html=1;fixedSize=1;" vertex="1" parent="1">
          <mxGeometry x="650" y="240" width="140" height="80" as="geometry" />
        </mxCell>
        <mxCell id="xp_GALmw90U57M7lSrMV-75" style="edgeStyle=orthogonalEdgeStyle;rounded=0;orthogonalLoop=1;jettySize=auto;html=1;exitX=1;exitY=0.5;exitDx=0;exitDy=0;entryX=0.5;entryY=0;entryDx=0;entryDy=0;" edge="1" parent="1" source="xp_GALmw90U57M7lSrMV-6" target="xp_GALmw90U57M7lSrMV-6">
          <mxGeometry relative="1" as="geometry">
            <Array as="points">
              <mxPoint x="1200" y="210" />
              <mxPoint x="1210" y="210" />
              <mxPoint x="1210" y="130" />
              <mxPoint x="1135" y="130" />
            </Array>
          </mxGeometry>
        </mxCell>
        <mxCell id="xp_GALmw90U57M7lSrMV-82" style="edgeStyle=orthogonalEdgeStyle;rounded=0;orthogonalLoop=1;jettySize=auto;html=1;exitX=1;exitY=0.5;exitDx=0;exitDy=0;entryX=0.007;entryY=0.988;entryDx=0;entryDy=0;entryPerimeter=0;fontSize=10;" edge="1" parent="1" source="xp_GALmw90U57M7lSrMV-77" target="xp_GALmw90U57M7lSrMV-81">
          <mxGeometry relative="1" as="geometry" />
        </mxCell>
        <mxCell id="xp_GALmw90U57M7lSrMV-77" value="Week Schedule (unloads per week nta_schd)" style="rounded=0;whiteSpace=wrap;html=1;" vertex="1" parent="1">
          <mxGeometry x="670" y="620" width="120" height="60" as="geometry" />
        </mxCell>
        <mxCell id="xp_GALmw90U57M7lSrMV-85" style="edgeStyle=orthogonalEdgeStyle;rounded=0;orthogonalLoop=1;jettySize=auto;html=1;exitX=1;exitY=0.5;exitDx=0;exitDy=0;fontSize=10;entryX=0;entryY=0.5;entryDx=0;entryDy=0;" edge="1" parent="1" source="xp_GALmw90U57M7lSrMV-81" target="xp_GALmw90U57M7lSrMV-4">
          <mxGeometry relative="1" as="geometry">
            <mxPoint x="1050" y="670" as="targetPoint" />
          </mxGeometry>
        </mxCell>
        <mxCell id="xp_GALmw90U57M7lSrMV-81" value="&lt;table border=&quot;0&quot; cellpadding=&quot;0&quot; cellspacing=&quot;0&quot; width=&quot;145&quot; style=&quot;border-collapse: collapse ; width: 109pt&quot;&gt;&lt;colgroup&gt;&lt;col width=&quot;145&quot; style=&quot;width: 109pt&quot;&gt;&lt;/colgroup&gt;&lt;tbody&gt;&lt;tr style=&quot;height: 16pt&quot;&gt;&lt;td height=&quot;21&quot; width=&quot;145&quot; style=&quot;padding-top: 1px ; padding-right: 1px ; padding-left: 1px ; font-family: &amp;#34;calibri&amp;#34; , sans-serif ; vertical-align: bottom ; border: none ; height: 16pt ; width: 109pt&quot;&gt;&lt;font style=&quot;font-size: 10px&quot;&gt;If Week&amp;nbsp; Schedule &amp;gt;= 21, min(total ldo, 4), if week schedule &amp;gt;=14, min(total ldo, 3), if week schedule &amp;gt;=7, min(total ldo, 2), else min(total ldo, 1)&lt;/font&gt;&lt;/td&gt;&lt;/tr&gt;&lt;/tbody&gt;&lt;/table&gt;" style="shape=step;perimeter=stepPerimeter;whiteSpace=wrap;html=1;fixedSize=1;" vertex="1" parent="1">
          <mxGeometry x="840" y="620" width="180" height="120" as="geometry" />
        </mxCell>
        <mxCell id="xp_GALmw90U57M7lSrMV-90" style="edgeStyle=orthogonalEdgeStyle;rounded=0;orthogonalLoop=1;jettySize=auto;html=1;exitX=1;exitY=0.5;exitDx=0;exitDy=0;entryX=0;entryY=0.5;entryDx=0;entryDy=0;fontSize=10;" edge="1" parent="1" source="xp_GALmw90U57M7lSrMV-87" target="xp_GALmw90U57M7lSrMV-3">
          <mxGeometry relative="1" as="geometry" />
        </mxCell>
        <mxCell id="xp_GALmw90U57M7lSrMV-111" value="" style="edgeStyle=orthogonalEdgeStyle;rounded=0;orthogonalLoop=1;jettySize=auto;html=1;fontSize=11;" edge="1" parent="1" source="xp_GALmw90U57M7lSrMV-87" target="xp_GALmw90U57M7lSrMV-3">
          <mxGeometry relative="1" as="geometry" />
        </mxCell>
        <mxCell id="xp_GALmw90U57M7lSrMV-87" value="Total LDO - Good LDO" style="shape=step;perimeter=stepPerimeter;whiteSpace=wrap;html=1;fixedSize=1;" vertex="1" parent="1">
          <mxGeometry x="1220" y="650" width="90" height="60" as="geometry" />
        </mxCell>
        <mxCell id="xp_GALmw90U57M7lSrMV-94" value="nta_schd" style="swimlane;fontStyle=0;childLayout=stackLayout;horizontal=1;startSize=30;horizontalStack=0;resizeParent=1;resizeParentMax=0;resizeLast=0;collapsible=1;marginBottom=0;" vertex="1" parent="1">
          <mxGeometry x="130" y="680" width="140" height="150" as="geometry">
            <mxRectangle x="520" y="30" width="80" height="30" as="alternateBounds" />
          </mxGeometry>
        </mxCell>
        <mxCell id="xp_GALmw90U57M7lSrMV-95" value="schedule_date" style="text;strokeColor=none;fillColor=none;align=left;verticalAlign=middle;spacingLeft=4;spacingRight=4;overflow=hidden;points=[[0,0.5],[1,0.5]];portConstraint=eastwest;rotatable=0;" vertex="1" parent="xp_GALmw90U57M7lSrMV-94">
          <mxGeometry y="30" width="140" height="30" as="geometry" />
        </mxCell>
        <mxCell id="xp_GALmw90U57M7lSrMV-96" value="arrival_time" style="text;strokeColor=none;fillColor=none;align=left;verticalAlign=middle;spacingLeft=4;spacingRight=4;overflow=hidden;points=[[0,0.5],[1,0.5]];portConstraint=eastwest;rotatable=0;" vertex="1" parent="xp_GALmw90U57M7lSrMV-94">
          <mxGeometry y="60" width="140" height="30" as="geometry" />
        </mxCell>
        <mxCell id="xp_GALmw90U57M7lSrMV-97" value="destination_id" style="text;strokeColor=none;fillColor=none;align=left;verticalAlign=middle;spacingLeft=4;spacingRight=4;overflow=hidden;points=[[0,0.5],[1,0.5]];portConstraint=eastwest;rotatable=0;" vertex="1" parent="xp_GALmw90U57M7lSrMV-94">
          <mxGeometry y="90" width="140" height="30" as="geometry" />
        </mxCell>
        <mxCell id="xp_GALmw90U57M7lSrMV-98" value="origin_id" style="text;strokeColor=none;fillColor=none;align=left;verticalAlign=middle;spacingLeft=4;spacingRight=4;overflow=hidden;points=[[0,0.5],[1,0.5]];portConstraint=eastwest;rotatable=0;" vertex="1" parent="xp_GALmw90U57M7lSrMV-94">
          <mxGeometry y="120" width="140" height="30" as="geometry" />
        </mxCell>
        <mxCell id="xp_GALmw90U57M7lSrMV-101" value="&lt;span style=&quot;font-size: 11px&quot;&gt;schedule_date + arrival_time - transit hours&lt;/span&gt;" style="shape=step;perimeter=stepPerimeter;whiteSpace=wrap;html=1;fixedSize=1;shadow=1;fontSize=24;" vertex="1" parent="1">
          <mxGeometry x="320" y="570" width="120" height="80" as="geometry" />
        </mxCell>
        <mxCell id="xp_GALmw90U57M7lSrMV-102" style="edgeStyle=orthogonalEdgeStyle;rounded=0;orthogonalLoop=1;jettySize=auto;html=1;exitX=1;exitY=0.5;exitDx=0;exitDy=0;entryX=0;entryY=0.025;entryDx=0;entryDy=0;entryPerimeter=0;fontSize=11;" edge="1" parent="1" source="xp_GALmw90U57M7lSrMV-23" target="xp_GALmw90U57M7lSrMV-101">
          <mxGeometry relative="1" as="geometry" />
        </mxCell>
        <mxCell id="xp_GALmw90U57M7lSrMV-103" style="edgeStyle=orthogonalEdgeStyle;rounded=0;orthogonalLoop=1;jettySize=auto;html=1;exitX=1;exitY=0.5;exitDx=0;exitDy=0;entryX=-0.017;entryY=1.013;entryDx=0;entryDy=0;entryPerimeter=0;fontSize=11;" edge="1" parent="1" source="xp_GALmw90U57M7lSrMV-95" target="xp_GALmw90U57M7lSrMV-101">
          <mxGeometry relative="1" as="geometry" />
        </mxCell>
        <mxCell id="xp_GALmw90U57M7lSrMV-108" style="edgeStyle=orthogonalEdgeStyle;rounded=0;orthogonalLoop=1;jettySize=auto;html=1;exitX=1;exitY=0.5;exitDx=0;exitDy=0;entryX=0.583;entryY=0;entryDx=0;entryDy=0;entryPerimeter=0;fontSize=11;" edge="1" parent="1" source="xp_GALmw90U57M7lSrMV-32" target="xp_GALmw90U57M7lSrMV-8">
          <mxGeometry relative="1" as="geometry" />
        </mxCell>
        <mxCell id="xp_GALmw90U57M7lSrMV-109" style="edgeStyle=orthogonalEdgeStyle;rounded=0;orthogonalLoop=1;jettySize=auto;html=1;exitX=1;exitY=0.5;exitDx=0;exitDy=0;entryX=0.5;entryY=1;entryDx=0;entryDy=0;fontSize=11;" edge="1" parent="1" source="xp_GALmw90U57M7lSrMV-31" target="xp_GALmw90U57M7lSrMV-9">
          <mxGeometry relative="1" as="geometry">
            <Array as="points">
              <mxPoint x="350" y="231" />
              <mxPoint x="350" y="190" />
              <mxPoint x="580" y="190" />
            </Array>
          </mxGeometry>
        </mxCell>
      </root>
    </mxGraphModel>
  </diagram>
</mxfile>
